<?xml version="1.0" encoding="UTF-8"?>
<svg width="512" height="512" viewBox="0 0 512 512" xmlns="http://www.w3.org/2000/svg">
  <defs>
    <linearGradient id="grad1" x1="0%" y1="0%" x2="100%" y2="100%">
      <stop offset="0%" style="stop-color:#4CAF50;stop-opacity:1" />
      <stop offset="100%" style="stop-color:#2E7D32;stop-opacity:1" />
    </linearGradient>
  </defs>
  <rect width="512" height="512" rx="100" fill="url(#grad1)" />
  <g fill="#FFFFFF">
    <!-- Cloud shape -->
    <path d="M396,220c0-66.1-53.9-120-120-120c-48.3,0-89.8,28.8-108.7,70.1C157.2,166.8,146.3,165,135,165c-49.6,0-90,40.4-90,90
      c0,49.6,40.4,90,90,90h255c40.3,0,73-32.7,73-73C463,235.3,432.4,220,396,220z" opacity="0.9" />
    
    <!-- EC2 text -->
    <text x="256" y="280" font-family="Arial, sans-serif" font-size="120" font-weight="bold" text-anchor="middle">EC2</text>
    
    <!-- Power button -->
    <circle cx="256" cy="370" r="40" fill="#FFFFFF" />
    <path d="M256,330 L256,410" stroke="#4CAF50" stroke-width="15" stroke-linecap="round" />
  </g>
</svg>





